<svg width="171" height="171" viewBox="0 0 171 171" fill="none" xmlns="http://www.w3.org/2000/svg">
<path d="M127.986 42.4264C151.418 65.8579 151.259 104.006 127.633 127.633C104.006 151.259 65.8579 151.418 42.4264 127.986C37.7189 123.279 33.9636 117.977 31.1594 112.319C28.4403 106.832 26.6156 101.01 25.6842 95.0685C22.7951 76.6375 28.5026 57.0573 42.78 42.78C57.9457 27.6142 79.0946 22.118 98.494 26.3234C103.564 27.4223 108.514 29.1839 113.206 31.6085C118.532 34.3602 123.526 37.9658 127.986 42.4264Z" fill="url(#paint0_linear)"/>
<path d="M127.986 42.4264C151.418 65.8579 151.259 104.006 127.633 127.633C104.006 151.259 65.8579 151.418 42.4264 127.986C37.7189 123.279 33.9636 117.977 31.1594 112.319C28.4403 106.832 26.6156 101.01 25.6842 95.0685C22.7951 76.6375 28.5026 57.0573 42.78 42.78C57.9457 27.6142 79.0946 22.118 98.494 26.3234C103.564 27.4223 108.514 29.1839 113.206 31.6085C118.532 34.3602 123.526 37.9658 127.986 42.4264Z" fill="url(#paint1_linear)"/>
<g filter="url(#filter0_i)">
<path fill-rule="evenodd" clip-rule="evenodd" d="M98.4089 26.716C98.4008 26.7191 98.3927 26.7222 98.3846 26.7253L98.0282 25.7909C114.82 19.3859 129.887 19.5431 138.481 28.1371C146.498 36.1536 147.171 49.8056 142.034 65.2173C136.886 80.6607 125.861 98.033 110.197 113.697C94.5331 129.361 77.1608 140.386 61.7173 145.534C46.3056 150.671 32.6537 149.998 24.6371 141.981C19.7596 137.104 17.6013 130.131 17.8141 121.965C18.0268 113.801 20.6079 104.407 25.2546 94.61L26.0878 95.0052L26.1782 94.991C27.1018 100.883 28.9114 106.657 31.6074 112.097L31.3363 112.231L31.5444 112.249C30.9841 118.776 32.4014 124.118 35.9508 127.668C41.5877 133.304 51.7683 133.555 63.8864 129.09C75.9606 124.642 89.7661 115.572 102.419 102.919C115.072 90.266 124.142 76.4605 128.59 64.3863C133.055 52.2682 132.804 42.0876 127.168 36.4508C123.852 33.1354 118.974 31.6806 113.025 31.9593L112.977 32.0527C108.324 29.6486 103.415 27.9018 98.3881 26.812L98.4089 26.716ZM25.3442 141.274C20.7164 136.646 18.6057 129.973 18.8138 121.991C19.0107 114.434 21.2869 105.74 25.4356 96.5958C26.4105 101.962 28.1133 107.217 30.5448 112.202C29.9784 118.885 31.4201 124.551 35.2437 128.375C41.3226 134.454 52.0376 134.521 64.2321 130.028C76.4705 125.519 90.3947 116.357 103.126 103.626C115.857 90.8946 125.02 76.9704 129.528 64.732C134.021 52.5375 133.954 41.8226 127.875 35.7437C124.308 32.1766 119.135 30.6822 113.033 30.9579C108.84 28.8318 104.448 27.2274 99.9532 26.1443C115.991 20.3845 129.877 20.9465 137.774 28.8442C145.379 36.4486 146.185 49.6021 141.085 64.901C135.996 80.1683 125.068 97.4119 109.49 112.99C93.9119 128.568 76.6683 139.496 61.4011 144.585C46.1021 149.684 32.9486 148.879 25.3442 141.274Z" fill="url(#paint2_linear)"/>
<path d="M18.8138 121.991C18.6057 129.973 20.7164 136.646 25.3442 141.274C32.9486 148.879 46.1021 149.684 61.4011 144.585C76.6683 139.496 93.9119 128.568 109.49 112.99C125.068 97.4119 135.996 80.1683 141.085 64.901C146.185 49.6021 145.379 36.4486 137.774 28.8442C129.877 20.9465 115.991 20.3845 99.9532 26.1443C104.448 27.2274 108.84 28.8318 113.033 30.9579C119.135 30.6822 124.308 32.1766 127.875 35.7437C133.954 41.8226 134.021 52.5375 129.528 64.732C125.02 76.9704 115.857 90.8946 103.126 103.626C90.3947 116.357 76.4705 125.519 64.2321 130.028C52.0376 134.521 41.3226 134.454 35.2437 128.375C31.4201 124.551 29.9784 118.885 30.5448 112.202C28.1133 107.217 26.4105 101.962 25.4356 96.5958C21.2869 105.74 19.0107 114.434 18.8138 121.991Z" fill="url(#paint3_linear)"/>
</g>
<g filter="url(#filter1_if)">
<path d="M78.6332 36.8761C71.5453 36.8368 58.9831 47.0874 53.9097 51.1508C50.256 55.3255 45.2172 64.6863 54.2919 68.7321C65.6354 73.7895 70.4484 53.6806 78.2742 51.9463C86.0999 50.212 85.4891 53.51 90.0088 47.5248C92.1183 44.7313 91.2796 41.0377 87.9579 39.393C84.6362 37.7483 81.295 37.3375 78.6332 36.8761Z" fill="#5B2F6C" fill-opacity="0.6"/>
</g>
<defs>
<filter id="filter0_i" x="17.7998" y="21.3001" width="127.518" height="131.518" filterUnits="userSpaceOnUse" color-interpolation-filters="sRGB">
<feFlood flood-opacity="0" result="BackgroundImageFix"/>
<feBlend mode="normal" in="SourceGraphic" in2="BackgroundImageFix" result="shape"/>
<feColorMatrix in="SourceAlpha" type="matrix" values="0 0 0 0 0 0 0 0 0 0 0 0 0 0 0 0 0 0 127 0" result="hardAlpha"/>
<feOffset dy="4"/>
<feGaussianBlur stdDeviation="2"/>
<feComposite in2="hardAlpha" operator="arithmetic" k2="-1" k3="1"/>
<feColorMatrix type="matrix" values="0 0 0 0 0 0 0 0 0 0 0 0 0 0 0 0 0 0 0.25 0"/>
<feBlend mode="normal" in2="shape" result="effect1_innerShadow"/>
</filter>
<filter id="filter1_if" x="48.1782" y="35.876" width="43.985" height="37.6696" filterUnits="userSpaceOnUse" color-interpolation-filters="sRGB">
<feFlood flood-opacity="0" result="BackgroundImageFix"/>
<feBlend mode="normal" in="SourceGraphic" in2="BackgroundImageFix" result="shape"/>
<feColorMatrix in="SourceAlpha" type="matrix" values="0 0 0 0 0 0 0 0 0 0 0 0 0 0 0 0 0 0 127 0" result="hardAlpha"/>
<feOffset dy="4"/>
<feGaussianBlur stdDeviation="2"/>
<feComposite in2="hardAlpha" operator="arithmetic" k2="-1" k3="1"/>
<feColorMatrix type="matrix" values="0 0 0 0 0 0 0 0 0 0 0 0 0 0 0 0 0 0 0.25 0"/>
<feBlend mode="normal" in2="shape" result="effect1_innerShadow"/>
<feGaussianBlur stdDeviation="0.5" result="effect2_foregroundBlur"/>
</filter>
<linearGradient id="paint0_linear" x1="131.706" y1="41.7064" x2="87.2064" y2="139.206" gradientUnits="userSpaceOnUse">
<stop offset="0.5625" stop-color="#3F3D97"/>
<stop offset="1" stop-color="#622C63"/>
</linearGradient>
<linearGradient id="paint1_linear" x1="131.706" y1="41.7064" x2="87.2064" y2="139.206" gradientUnits="userSpaceOnUse">
<stop offset="0.5625" stop-color="#3F3D97"/>
<stop offset="1" stop-color="#622C63"/>
</linearGradient>
<linearGradient id="paint2_linear" x1="81.559" y1="21.3001" x2="81.559" y2="148.818" gradientUnits="userSpaceOnUse">
<stop offset="0.697917" stop-color="#C22525" stop-opacity="0.94"/>
<stop offset="1" stop-color="#D7AAAA" stop-opacity="0.56"/>
</linearGradient>
<linearGradient id="paint3_linear" x1="81.559" y1="21.3001" x2="81.559" y2="148.818" gradientUnits="userSpaceOnUse">
<stop offset="0.697917" stop-color="#C22525" stop-opacity="0.94"/>
<stop offset="1" stop-color="#D7AAAA" stop-opacity="0.56"/>
</linearGradient>
</defs>
</svg>
