<svg width="231" height="355" viewBox="0 0 231 355" fill="none" xmlns="http://www.w3.org/2000/svg">
<path d="M217.918 27.2689L192.953 58.9618C188.097 61.2218 178.009 65.961 176.509 66.8379C174.634 67.9339 164.25 73.3222 161.277 75.3321C158.303 77.3419 149.954 82.663 146.111 85.8611C142.268 89.0591 132.843 97.8317 128.656 102.013C124.469 106.194 117.353 114.671 114.493 118.212C111.632 121.754 104.401 131.488 102.067 134.825C99.7322 138.161 95.0175 145.337 92.9116 148.947C91.2269 151.836 88.7606 156.428 87.7381 158.363C83.234 158.627 72.8302 160.547 66.2669 162.989C60.0012 164.951 46.0952 172.806 41.2903 178.198C32.5501 187.794 27.7912 192.683 22.251 203.334C16.7108 213.984 14.8564 217.617 12.4741 224.246C10.5682 229.549 9.69367 233.374 9.49465 234.623C10.3412 233.687 12.7753 231.475 15.7393 230.124C19.4442 228.435 20.1818 227.995 23.1261 226.997C27.8369 225.4 38.6311 221.064 59.7528 225.788L59.5454 228.051L82.625 244.62L85.0495 243.067C87.3646 245.477 92.6876 253.251 95.4594 265.068C98.2312 276.885 96.3876 289.074 95.1193 293.692L95.4743 293.436C102.081 288.668 118.971 276.479 130.238 259.125C145 236.387 142.785 210.742 141.004 196.97C158.45 174.833 162.796 168.785 171.417 155.633C176.804 145.643 182.477 136.61 186.16 127.568C192.669 111.587 194.96 101.748 196.863 91.0179C198.557 81.4616 199.652 68.8736 200.128 63.6765L222.694 30.4959C220.354 29.47 218.535 27.9171 217.918 27.2689Z" fill="#55716C"/>
<path d="M95.1193 293.692C96.3876 289.074 98.2312 276.885 95.4594 265.068C92.6876 253.251 87.3646 245.477 85.0495 243.067L82.625 244.62L59.5454 228.051L59.7528 225.788C38.6311 221.064 27.8369 225.4 23.1261 226.997C20.1818 227.995 19.4442 228.435 15.7393 230.124C12.7753 231.475 10.3412 233.687 9.49465 234.623C9.69367 233.374 10.5682 229.549 12.4741 224.246C14.8564 217.617 16.7108 213.984 22.251 203.334C27.7912 192.683 32.5501 187.794 41.2903 178.198C46.0952 172.806 60.0012 164.951 66.2669 162.989C72.8302 160.547 83.234 158.627 87.7381 158.363C88.7606 156.428 91.2269 151.836 92.9116 148.947C95.0175 145.337 99.7322 138.161 102.067 134.825C104.401 131.488 111.632 121.754 114.493 118.212C117.353 114.671 124.469 106.194 128.656 102.013C132.843 97.8317 142.268 89.0591 146.111 85.8611C149.954 82.663 158.303 77.3419 161.277 75.3321C164.25 73.3222 174.634 67.9339 176.509 66.8379C178.009 65.961 188.097 61.2218 192.953 58.9618L217.918 27.2689C218.535 27.9171 220.354 29.47 222.694 30.4959L200.128 63.6765C199.652 68.8736 198.557 81.4616 196.863 91.0179C194.96 101.748 192.669 111.587 186.16 127.568C182.477 136.61 176.804 145.643 171.417 155.633C162.796 168.785 158.45 174.833 141.004 196.97C142.785 210.742 145 236.387 130.238 259.125C118.971 276.479 102.081 288.668 95.4743 293.436M95.1193 293.692L95.4743 293.436M95.1193 293.692C95.2341 293.609 95.3524 293.523 95.4743 293.436" stroke="#F2DB99" stroke-width="2"/>
<path d="M24.1158 282.622C27.9261 293.622 27.8129 292.09 29.4541 299.087C30.767 304.685 28.7302 309.756 27.5477 311.592C25.3376 311.727 20.129 314.513 16.9761 324.57C13.8232 334.627 7.48718 336.803 4.71331 336.633C6.84861 334.546 10.7971 326.692 9.50888 311.968C8.22061 297.243 18.71 286.269 24.1158 282.622Z" fill="#B43534" stroke="#F2DB99" stroke-width="2"/>
<path d="M59.5454 228.051C58.631 227.883 56.5416 227.624 55.4988 227.934C54.1954 228.322 54.0572 229.831 55.1763 231.455C56.0716 232.754 56.1278 233.063 56.0439 233.056C55.3964 232.743 53.9181 232.455 53.1856 233.808C52.453 235.161 53.3666 236.445 53.915 236.918C61.2045 242.235 76.0586 253.428 77.9314 254.333C79.8566 255.264 80.6305 254.262 81.2976 253.399L81.3157 253.375C81.4226 253.132 82.1945 252.087 81.3177 250.586C82.1329 250.914 83.9532 251.413 85.1358 250.429C86.5084 249.287 85.8922 247.709 84.4986 246.313L59.5454 228.051Z" fill="#B43534"/>
<path d="M81.3157 253.375C81.4226 253.132 82.1945 252.087 81.3177 250.586C82.1329 250.914 83.9532 251.413 85.1358 250.429C86.5084 249.287 85.8922 247.709 84.4986 246.313L59.5454 228.051C58.631 227.883 56.5416 227.624 55.4988 227.934C54.1954 228.322 54.0572 229.831 55.1763 231.455C56.0716 232.754 56.1278 233.063 56.0439 233.056C55.3964 232.743 53.9181 232.455 53.1856 233.808C52.453 235.161 53.3666 236.445 53.915 236.918C61.2045 242.235 76.0586 253.428 77.9314 254.333C79.8566 255.264 80.6305 254.262 81.2976 253.399M81.3157 253.375L81.2976 253.399M81.3157 253.375C81.3097 253.383 81.3036 253.391 81.2976 253.399" stroke="#F2DB99" stroke-width="2"/>
<ellipse rx="11.1951" ry="1.59276" transform="matrix(0.810646 0.585536 -0.585538 0.810645 73.5647 241.254)" fill="#F2DB99"/>
<path fill-rule="evenodd" clip-rule="evenodd" d="M54.5253 246.864C65.2184 256.364 68.09 258.419 68.1892 258.259C65.215 261.198 59.5119 269.382 60.4931 278.601C61.7196 290.125 57.9877 297.644 53.2499 305.071C48.5122 312.498 35.1533 322.685 21.9596 325.534C25.8712 322.511 33.349 313.594 31.967 302.107C30.2395 287.748 24.9336 290.305 25.312 272.335C25.6147 257.959 44.9137 249.364 54.5253 246.864Z" fill="#B43534" stroke="#F2DB99" stroke-width="2"/>
<path d="M38.5143 313.103C41.001 309.95 45.5738 300.817 43.9722 289.513C41.9702 275.383 35.5299 265.41 52.9124 255.591C53.6058 256.669 59.2413 261.243 59.2413 261.243C56.7854 264.061 52.4342 272.436 54.6761 283.393C57.4786 297.09 41.6702 311.871 38.5143 313.103Z" fill="#F2DB99" stroke="#F2DB99" stroke-width="2"/>
<path d="M22.9448 289.869C18.4694 292.586 10.3069 302.151 13.4595 318.669C14.6574 316.666 17.237 311.205 17.9727 305.389C18.7084 299.573 22.628 296.095 24.4958 295.083L22.9448 289.869Z" fill="#F2DB99"/>
<path d="M100.978 285.1C108.438 275.64 120.173 252.726 111.015 219.834C117.32 215.594 131.107 205.902 135.811 201.058C140.023 215.983 138.952 253.686 100.978 285.1Z" fill="#F2DB99"/>
<path d="M38.3183 210.638C41.5671 196.397 53.8264 167.58 76.8728 166.243C71.4919 177.922 70.3017 179.842 68.6047 187.294C67.2023 195.026 64.6418 200.011 62.3713 208.277C58.2646 206.971 47.7046 205.615 38.3183 210.638Z" fill="#F2DB99"/>
<path d="M127.196 195.451C123.426 191.386 112.551 181.481 99.2038 174.375C94.5518 179.02 86.1412 192.4 89.7146 208.754L99.8828 216.785C102.643 215.263 111.969 208.865 127.196 195.451Z" fill="#F2DB99"/>
<path d="M98.2588 217.905L89.7588 211.04C86.4723 213.697 80.8823 219.356 82.5886 231.177L101.092 220.193L100.43 219.118L83.5043 229.486C83.3751 229.051 83.2356 227.99 83.7117 227.222L98.2588 217.905Z" fill="#F2DB99"/>
<path d="M102.716 219.074C109.014 214.917 123.33 204.987 130.211 198.517L129.321 197.167C124.898 201.157 113.303 210.915 102.305 218.022L102.716 219.074Z" fill="#F2DB99"/>
<g filter="url(#filter0_i)">
<ellipse rx="1.26263" ry="1.26263" transform="matrix(0.483295 0.875457 -0.875455 0.483299 100.126 177.995)" fill="#F2DB99"/>
</g>
<g filter="url(#filter1_i)">
<ellipse rx="1.26263" ry="1.26263" transform="matrix(0.483294 0.875458 -0.875455 0.4833 103.508 179.827)" fill="#F2DB99"/>
</g>
<g filter="url(#filter2_i)">
<ellipse rx="1.26262" ry="1.26262" transform="matrix(0.483302 0.875454 -0.875459 0.483293 106.891 181.658)" fill="#F2DB99"/>
</g>
<g filter="url(#filter3_i)">
<ellipse rx="1.26262" ry="1.26262" transform="matrix(0.483301 0.875454 -0.875458 0.483294 110.227 183.992)" fill="#F2DB99"/>
</g>
<g filter="url(#filter4_i)">
<ellipse rx="1.26263" ry="1.26263" transform="matrix(0.483296 0.875457 -0.875456 0.483298 113.563 186.327)" fill="#F2DB99"/>
</g>
<g filter="url(#filter5_i)">
<ellipse rx="1.26263" ry="1.26263" transform="matrix(0.483298 0.875456 -0.875457 0.483296 116.853 189.164)" fill="#F2DB99"/>
</g>
<g filter="url(#filter6_i)">
<ellipse rx="1.26263" ry="1.26263" transform="matrix(0.483298 0.875456 -0.875457 0.483296 120.19 191.498)" fill="#F2DB99"/>
</g>
<g filter="url(#filter7_i)">
<ellipse rx="1.26263" ry="1.26263" transform="matrix(0.483298 0.875456 -0.875457 0.483296 123.434 194.839)" fill="#F2DB99"/>
</g>
<path d="M180.349 132.868C159.396 122.428 146.102 109.951 142.074 105.017C115.194 121.624 102.569 157.017 99.6166 172.638C108.594 176.503 123.04 188.223 129.14 193.6C155.318 169.257 169.717 144.914 173.885 135.295C173.952 135.14 174.018 134.985 174.084 134.829C174.02 134.98 173.954 135.135 173.885 135.295C160.932 165.524 139.737 188.19 130.716 195.773L131.607 197.123C155.104 179.801 173.892 147.068 180.349 132.868Z" fill="#F2DB99"/>
<ellipse cx="138.706" cy="147.31" rx="20.202" ry="20.202" transform="rotate(5.2346 138.706 147.31)" fill="#55716C"/>
<ellipse cx="138.707" cy="147.31" rx="17.6768" ry="17.6768" transform="rotate(5.2346 138.707 147.31)" fill="#B43534"/>
<ellipse cx="138.706" cy="147.31" rx="12.6263" ry="12.6263" transform="rotate(5.2346 138.706 147.31)" fill="#1C3238"/>
<g filter="url(#filter8_i)">
<circle cx="139.802" cy="132.435" r="1.26263" transform="rotate(61.099 139.802 132.435)" fill="#F2DB99"/>
</g>
<g filter="url(#filter9_i)">
<ellipse rx="1.26263" ry="1.26263" transform="matrix(0.483295 0.875457 -0.875455 0.483299 127.178 137.365)" fill="#F2DB99"/>
</g>
<g filter="url(#filter10_i)">
<ellipse rx="1.26263" ry="1.26263" transform="matrix(0.483294 0.875458 -0.875454 0.483301 124.379 151.309)" fill="#F2DB99"/>
</g>
<g filter="url(#filter11_i)">
<ellipse rx="1.26263" ry="1.26263" transform="matrix(0.483295 0.875457 -0.875455 0.483299 132.603 161.191)" fill="#F2DB99"/>
</g>
<g filter="url(#filter12_i)">
<ellipse rx="1.26262" ry="1.26263" transform="matrix(0.483302 0.875454 -0.875459 0.483293 146.366 160.424)" fill="#F2DB99"/>
</g>
<g filter="url(#filter13_i)">
<circle cx="153.461" cy="149.409" r="1.26262" transform="rotate(61.099 153.461 149.409)" fill="#F2DB99"/>
</g>
<g filter="url(#filter14_i)">
<ellipse rx="1.26262" ry="1.26263" transform="matrix(0.483301 0.875454 -0.875458 0.483294 150.452 137.975)" fill="#F2DB99"/>
</g>
<path d="M139.325 137.224C143.309 139.871 148.714 147.669 138.465 157.685C142.176 157.772 149.522 155.452 149.218 145.484C148.687 142.984 145.964 137.832 139.325 137.224Z" fill="#F2DB99"/>
<path d="M136.019 156.7C132.004 154.388 125.938 147.713 133.791 139.506C131.427 140.389 127.029 143.553 128.342 149.15C129.655 154.748 134.175 156.531 136.019 156.7Z" fill="#F2DB99"/>
<g filter="url(#filter15_i)">
<ellipse rx="1.26262" ry="1.26262" transform="matrix(0.483295 0.875457 -0.875455 0.483299 176.609 134.793)" fill="#F2DB99"/>
</g>
<g filter="url(#filter16_i)">
<circle cx="173.226" cy="132.962" r="1.26263" transform="rotate(61.099 173.226 132.962)" fill="#F2DB99"/>
</g>
<g filter="url(#filter17_i)">
<circle cx="169.844" cy="131.13" r="1.26263" transform="rotate(61.099 169.844 131.13)" fill="#F2DB99"/>
</g>
<g filter="url(#filter18_i)">
<ellipse rx="1.26263" ry="1.26263" transform="matrix(0.483296 0.875457 -0.875456 0.483298 166.508 128.796)" fill="#F2DB99"/>
</g>
<g filter="url(#filter19_i)">
<ellipse rx="1.26263" ry="1.26263" transform="matrix(0.4833 0.875455 -0.875458 0.483294 163.171 126.462)" fill="#F2DB99"/>
</g>
<g filter="url(#filter20_i)">
<circle cx="159.835" cy="124.127" r="1.26263" transform="rotate(61.099 159.835 124.127)" fill="#F2DB99"/>
</g>
<g filter="url(#filter21_i)">
<ellipse rx="1.26262" ry="1.26262" transform="matrix(0.483298 0.875456 -0.875457 0.483296 156.499 121.793)" fill="#F2DB99"/>
</g>
<g filter="url(#filter22_i)">
<ellipse rx="1.26262" ry="1.26262" transform="matrix(0.483296 0.875457 -0.875456 0.483298 153.163 119.459)" fill="#F2DB99"/>
</g>
<g filter="url(#filter23_i)">
<circle cx="149.826" cy="117.124" r="1.26262" transform="rotate(61.099 149.826 117.124)" fill="#F2DB99"/>
</g>
<g filter="url(#filter24_i)">
<ellipse rx="1.26262" ry="1.26263" transform="matrix(0.483299 0.875455 -0.875457 0.483295 146.536 114.287)" fill="#F2DB99"/>
</g>
<g filter="url(#filter25_i)">
<circle cx="143.246" cy="111.45" r="1.26263" transform="rotate(61.099 143.246 111.45)" fill="#F2DB99"/>
</g>
<g filter="url(#filter26_i)">
<circle cx="140.458" cy="108.659" r="1.26263" transform="rotate(61.099 140.458 108.659)" fill="#F2DB99"/>
</g>
<path d="M191.76 96.89C191.568 98.9856 191.019 103.872 190.359 106.651C189.533 110.126 188.088 117.601 181.516 131.2C174.743 128.55 157.601 119.322 143.218 103.6C146.096 97.1018 155.477 83.8283 169.982 82.7228C172.957 85.2595 176.318 88.5848 180.127 91.0061C184.509 93.7917 189.303 95.5796 191.76 96.89Z" fill="#F2DB99"/>
<g filter="url(#filter27_i)">
<ellipse rx="1.26263" ry="1.26262" transform="matrix(0.483294 0.875458 -0.875454 0.483301 189.025 98.9076)" fill="#F2DB99"/>
</g>
<g filter="url(#filter28_i)">
<ellipse rx="1.26263" ry="1.26262" transform="matrix(0.483294 0.875458 -0.875454 0.483301 185.643 97.0762)" fill="#F2DB99"/>
</g>
<g filter="url(#filter29_i)">
<ellipse rx="1.26263" ry="1.26263" transform="matrix(0.483298 0.875456 -0.875457 0.483296 181.758 95.1987)" fill="#F2DB99"/>
</g>
<g filter="url(#filter30_i)">
<ellipse rx="1.26263" ry="1.26262" transform="matrix(0.483294 0.875458 -0.875454 0.483301 178.375 93.3673)" fill="#F2DB99"/>
</g>
<g filter="url(#filter31_i)">
<ellipse rx="1.26262" ry="1.26262" transform="matrix(0.483296 0.875457 -0.875456 0.483298 174.536 90.9869)" fill="#F2DB99"/>
</g>
<g filter="url(#filter32_i)">
<ellipse rx="1.26263" ry="1.26263" transform="matrix(0.483298 0.875456 -0.875457 0.483296 171.749 88.1957)" fill="#F2DB99"/>
</g>
<g filter="url(#filter33_i)">
<ellipse rx="1.26263" ry="1.26263" transform="matrix(0.483299 0.875455 -0.875457 0.483295 168.459 85.3585)" fill="#F2DB99"/>
</g>
<path d="M196.6 74.5109C197.004 72.3164 197.429 66.3877 197.59 63.6976L220.866 28.2998L195.74 61.753C195.808 61.9283 195.963 62.6356 196.036 64.0623C196.108 65.489 196.442 71.6225 196.6 74.5109Z" fill="#F2DB99"/>
<ellipse cx="223.019" cy="24.1861" rx="6.56565" ry="6.56566" transform="rotate(5.2346 223.019 24.1861)" fill="#F2DB99"/>
<path d="M227.55 24.6012C227.321 27.1039 225.106 28.9469 222.603 28.7176C220.101 28.4883 218.258 26.2736 218.487 23.7709C218.716 21.2682 220.931 19.4252 223.434 19.6545C225.936 19.8838 227.779 22.0985 227.55 24.6012Z" fill="#B43534" stroke="black"/>
<path d="M226.087 23.96C225.985 25.0739 225 25.8941 223.886 25.7921C222.772 25.69 221.952 24.7043 222.054 23.5905C222.156 22.4766 223.141 21.6564 224.255 21.7585C225.369 21.8605 226.189 22.8462 226.087 23.96Z" fill="#F2DB99" stroke="black"/>
<defs>
<filter id="filter0_i" x="98.863" y="176.733" width="3.52572" height="3.52573" filterUnits="userSpaceOnUse" color-interpolation-filters="sRGB">
<feFlood flood-opacity="0" result="BackgroundImageFix"/>
<feBlend mode="normal" in="SourceGraphic" in2="BackgroundImageFix" result="shape"/>
<feColorMatrix in="SourceAlpha" type="matrix" values="0 0 0 0 0 0 0 0 0 0 0 0 0 0 0 0 0 0 127 0" result="hardAlpha"/>
<feOffset dx="1" dy="1"/>
<feGaussianBlur stdDeviation="0.5"/>
<feComposite in2="hardAlpha" operator="arithmetic" k2="-1" k3="1"/>
<feColorMatrix type="matrix" values="0 0 0 0 0.333333 0 0 0 0 0.443137 0 0 0 0 0.423529 0 0 0 1 0"/>
<feBlend mode="normal" in2="shape" result="effect1_innerShadow"/>
</filter>
<filter id="filter1_i" x="102.245" y="178.564" width="3.52571" height="3.52573" filterUnits="userSpaceOnUse" color-interpolation-filters="sRGB">
<feFlood flood-opacity="0" result="BackgroundImageFix"/>
<feBlend mode="normal" in="SourceGraphic" in2="BackgroundImageFix" result="shape"/>
<feColorMatrix in="SourceAlpha" type="matrix" values="0 0 0 0 0 0 0 0 0 0 0 0 0 0 0 0 0 0 127 0" result="hardAlpha"/>
<feOffset dx="1" dy="1"/>
<feGaussianBlur stdDeviation="0.5"/>
<feComposite in2="hardAlpha" operator="arithmetic" k2="-1" k3="1"/>
<feColorMatrix type="matrix" values="0 0 0 0 0.333333 0 0 0 0 0.443137 0 0 0 0 0.423529 0 0 0 1 0"/>
<feBlend mode="normal" in2="shape" result="effect1_innerShadow"/>
</filter>
<filter id="filter2_i" x="105.628" y="180.395" width="3.52572" height="3.5257" filterUnits="userSpaceOnUse" color-interpolation-filters="sRGB">
<feFlood flood-opacity="0" result="BackgroundImageFix"/>
<feBlend mode="normal" in="SourceGraphic" in2="BackgroundImageFix" result="shape"/>
<feColorMatrix in="SourceAlpha" type="matrix" values="0 0 0 0 0 0 0 0 0 0 0 0 0 0 0 0 0 0 127 0" result="hardAlpha"/>
<feOffset dx="1" dy="1"/>
<feGaussianBlur stdDeviation="0.5"/>
<feComposite in2="hardAlpha" operator="arithmetic" k2="-1" k3="1"/>
<feColorMatrix type="matrix" values="0 0 0 0 0.333333 0 0 0 0 0.443137 0 0 0 0 0.423529 0 0 0 1 0"/>
<feBlend mode="normal" in2="shape" result="effect1_innerShadow"/>
</filter>
<filter id="filter3_i" x="108.964" y="182.73" width="3.52572" height="3.5257" filterUnits="userSpaceOnUse" color-interpolation-filters="sRGB">
<feFlood flood-opacity="0" result="BackgroundImageFix"/>
<feBlend mode="normal" in="SourceGraphic" in2="BackgroundImageFix" result="shape"/>
<feColorMatrix in="SourceAlpha" type="matrix" values="0 0 0 0 0 0 0 0 0 0 0 0 0 0 0 0 0 0 127 0" result="hardAlpha"/>
<feOffset dx="1" dy="1"/>
<feGaussianBlur stdDeviation="0.5"/>
<feComposite in2="hardAlpha" operator="arithmetic" k2="-1" k3="1"/>
<feColorMatrix type="matrix" values="0 0 0 0 0.333333 0 0 0 0 0.443137 0 0 0 0 0.423529 0 0 0 1 0"/>
<feBlend mode="normal" in2="shape" result="effect1_innerShadow"/>
</filter>
<filter id="filter4_i" x="112.3" y="185.064" width="3.52572" height="3.52573" filterUnits="userSpaceOnUse" color-interpolation-filters="sRGB">
<feFlood flood-opacity="0" result="BackgroundImageFix"/>
<feBlend mode="normal" in="SourceGraphic" in2="BackgroundImageFix" result="shape"/>
<feColorMatrix in="SourceAlpha" type="matrix" values="0 0 0 0 0 0 0 0 0 0 0 0 0 0 0 0 0 0 127 0" result="hardAlpha"/>
<feOffset dx="1" dy="1"/>
<feGaussianBlur stdDeviation="0.5"/>
<feComposite in2="hardAlpha" operator="arithmetic" k2="-1" k3="1"/>
<feColorMatrix type="matrix" values="0 0 0 0 0.333333 0 0 0 0 0.443137 0 0 0 0 0.423529 0 0 0 1 0"/>
<feBlend mode="normal" in2="shape" result="effect1_innerShadow"/>
</filter>
<filter id="filter5_i" x="115.591" y="187.901" width="3.52572" height="3.52572" filterUnits="userSpaceOnUse" color-interpolation-filters="sRGB">
<feFlood flood-opacity="0" result="BackgroundImageFix"/>
<feBlend mode="normal" in="SourceGraphic" in2="BackgroundImageFix" result="shape"/>
<feColorMatrix in="SourceAlpha" type="matrix" values="0 0 0 0 0 0 0 0 0 0 0 0 0 0 0 0 0 0 127 0" result="hardAlpha"/>
<feOffset dx="1" dy="1"/>
<feGaussianBlur stdDeviation="0.5"/>
<feComposite in2="hardAlpha" operator="arithmetic" k2="-1" k3="1"/>
<feColorMatrix type="matrix" values="0 0 0 0 0.333333 0 0 0 0 0.443137 0 0 0 0 0.423529 0 0 0 1 0"/>
<feBlend mode="normal" in2="shape" result="effect1_innerShadow"/>
</filter>
<filter id="filter6_i" x="118.927" y="190.236" width="3.52572" height="3.52572" filterUnits="userSpaceOnUse" color-interpolation-filters="sRGB">
<feFlood flood-opacity="0" result="BackgroundImageFix"/>
<feBlend mode="normal" in="SourceGraphic" in2="BackgroundImageFix" result="shape"/>
<feColorMatrix in="SourceAlpha" type="matrix" values="0 0 0 0 0 0 0 0 0 0 0 0 0 0 0 0 0 0 127 0" result="hardAlpha"/>
<feOffset dx="1" dy="1"/>
<feGaussianBlur stdDeviation="0.5"/>
<feComposite in2="hardAlpha" operator="arithmetic" k2="-1" k3="1"/>
<feColorMatrix type="matrix" values="0 0 0 0 0.333333 0 0 0 0 0.443137 0 0 0 0 0.423529 0 0 0 1 0"/>
<feBlend mode="normal" in2="shape" result="effect1_innerShadow"/>
</filter>
<filter id="filter7_i" x="122.171" y="193.576" width="3.52572" height="3.52572" filterUnits="userSpaceOnUse" color-interpolation-filters="sRGB">
<feFlood flood-opacity="0" result="BackgroundImageFix"/>
<feBlend mode="normal" in="SourceGraphic" in2="BackgroundImageFix" result="shape"/>
<feColorMatrix in="SourceAlpha" type="matrix" values="0 0 0 0 0 0 0 0 0 0 0 0 0 0 0 0 0 0 127 0" result="hardAlpha"/>
<feOffset dx="1" dy="1"/>
<feGaussianBlur stdDeviation="0.5"/>
<feComposite in2="hardAlpha" operator="arithmetic" k2="-1" k3="1"/>
<feColorMatrix type="matrix" values="0 0 0 0 0.333333 0 0 0 0 0.443137 0 0 0 0 0.423529 0 0 0 1 0"/>
<feBlend mode="normal" in2="shape" result="effect1_innerShadow"/>
</filter>
<filter id="filter8_i" x="138.539" y="131.172" width="3.52572" height="3.52572" filterUnits="userSpaceOnUse" color-interpolation-filters="sRGB">
<feFlood flood-opacity="0" result="BackgroundImageFix"/>
<feBlend mode="normal" in="SourceGraphic" in2="BackgroundImageFix" result="shape"/>
<feColorMatrix in="SourceAlpha" type="matrix" values="0 0 0 0 0 0 0 0 0 0 0 0 0 0 0 0 0 0 127 0" result="hardAlpha"/>
<feOffset dx="1" dy="1"/>
<feGaussianBlur stdDeviation="0.5"/>
<feComposite in2="hardAlpha" operator="arithmetic" k2="-1" k3="1"/>
<feColorMatrix type="matrix" values="0 0 0 0 0.333333 0 0 0 0 0.443137 0 0 0 0 0.423529 0 0 0 1 0"/>
<feBlend mode="normal" in2="shape" result="effect1_innerShadow"/>
</filter>
<filter id="filter9_i" x="125.915" y="136.102" width="3.52572" height="3.52573" filterUnits="userSpaceOnUse" color-interpolation-filters="sRGB">
<feFlood flood-opacity="0" result="BackgroundImageFix"/>
<feBlend mode="normal" in="SourceGraphic" in2="BackgroundImageFix" result="shape"/>
<feColorMatrix in="SourceAlpha" type="matrix" values="0 0 0 0 0 0 0 0 0 0 0 0 0 0 0 0 0 0 127 0" result="hardAlpha"/>
<feOffset dx="1" dy="1"/>
<feGaussianBlur stdDeviation="0.5"/>
<feComposite in2="hardAlpha" operator="arithmetic" k2="-1" k3="1"/>
<feColorMatrix type="matrix" values="0 0 0 0 0.333333 0 0 0 0 0.443137 0 0 0 0 0.423529 0 0 0 1 0"/>
<feBlend mode="normal" in2="shape" result="effect1_innerShadow"/>
</filter>
<filter id="filter10_i" x="123.116" y="150.046" width="3.52572" height="3.52574" filterUnits="userSpaceOnUse" color-interpolation-filters="sRGB">
<feFlood flood-opacity="0" result="BackgroundImageFix"/>
<feBlend mode="normal" in="SourceGraphic" in2="BackgroundImageFix" result="shape"/>
<feColorMatrix in="SourceAlpha" type="matrix" values="0 0 0 0 0 0 0 0 0 0 0 0 0 0 0 0 0 0 127 0" result="hardAlpha"/>
<feOffset dx="1" dy="1"/>
<feGaussianBlur stdDeviation="0.5"/>
<feComposite in2="hardAlpha" operator="arithmetic" k2="-1" k3="1"/>
<feColorMatrix type="matrix" values="0 0 0 0 0.333333 0 0 0 0 0.443137 0 0 0 0 0.423529 0 0 0 1 0"/>
<feBlend mode="normal" in2="shape" result="effect1_innerShadow"/>
</filter>
<filter id="filter11_i" x="131.34" y="159.928" width="3.52572" height="3.52573" filterUnits="userSpaceOnUse" color-interpolation-filters="sRGB">
<feFlood flood-opacity="0" result="BackgroundImageFix"/>
<feBlend mode="normal" in="SourceGraphic" in2="BackgroundImageFix" result="shape"/>
<feColorMatrix in="SourceAlpha" type="matrix" values="0 0 0 0 0 0 0 0 0 0 0 0 0 0 0 0 0 0 127 0" result="hardAlpha"/>
<feOffset dx="1" dy="1"/>
<feGaussianBlur stdDeviation="0.5"/>
<feComposite in2="hardAlpha" operator="arithmetic" k2="-1" k3="1"/>
<feColorMatrix type="matrix" values="0 0 0 0 0.333333 0 0 0 0 0.443137 0 0 0 0 0.423529 0 0 0 1 0"/>
<feBlend mode="normal" in2="shape" result="effect1_innerShadow"/>
</filter>
<filter id="filter12_i" x="145.104" y="159.161" width="3.52573" height="3.52571" filterUnits="userSpaceOnUse" color-interpolation-filters="sRGB">
<feFlood flood-opacity="0" result="BackgroundImageFix"/>
<feBlend mode="normal" in="SourceGraphic" in2="BackgroundImageFix" result="shape"/>
<feColorMatrix in="SourceAlpha" type="matrix" values="0 0 0 0 0 0 0 0 0 0 0 0 0 0 0 0 0 0 127 0" result="hardAlpha"/>
<feOffset dx="1" dy="1"/>
<feGaussianBlur stdDeviation="0.5"/>
<feComposite in2="hardAlpha" operator="arithmetic" k2="-1" k3="1"/>
<feColorMatrix type="matrix" values="0 0 0 0 0.333333 0 0 0 0 0.443137 0 0 0 0 0.423529 0 0 0 1 0"/>
<feBlend mode="normal" in2="shape" result="effect1_innerShadow"/>
</filter>
<filter id="filter13_i" x="152.199" y="148.146" width="3.52571" height="3.52571" filterUnits="userSpaceOnUse" color-interpolation-filters="sRGB">
<feFlood flood-opacity="0" result="BackgroundImageFix"/>
<feBlend mode="normal" in="SourceGraphic" in2="BackgroundImageFix" result="shape"/>
<feColorMatrix in="SourceAlpha" type="matrix" values="0 0 0 0 0 0 0 0 0 0 0 0 0 0 0 0 0 0 127 0" result="hardAlpha"/>
<feOffset dx="1" dy="1"/>
<feGaussianBlur stdDeviation="0.5"/>
<feComposite in2="hardAlpha" operator="arithmetic" k2="-1" k3="1"/>
<feColorMatrix type="matrix" values="0 0 0 0 0.333333 0 0 0 0 0.443137 0 0 0 0 0.423529 0 0 0 1 0"/>
<feBlend mode="normal" in2="shape" result="effect1_innerShadow"/>
</filter>
<filter id="filter14_i" x="149.189" y="136.713" width="3.52573" height="3.52571" filterUnits="userSpaceOnUse" color-interpolation-filters="sRGB">
<feFlood flood-opacity="0" result="BackgroundImageFix"/>
<feBlend mode="normal" in="SourceGraphic" in2="BackgroundImageFix" result="shape"/>
<feColorMatrix in="SourceAlpha" type="matrix" values="0 0 0 0 0 0 0 0 0 0 0 0 0 0 0 0 0 0 127 0" result="hardAlpha"/>
<feOffset dx="1" dy="1"/>
<feGaussianBlur stdDeviation="0.5"/>
<feComposite in2="hardAlpha" operator="arithmetic" k2="-1" k3="1"/>
<feColorMatrix type="matrix" values="0 0 0 0 0.333333 0 0 0 0 0.443137 0 0 0 0 0.423529 0 0 0 1 0"/>
<feBlend mode="normal" in2="shape" result="effect1_innerShadow"/>
</filter>
<filter id="filter15_i" x="175.346" y="133.53" width="3.52571" height="3.52572" filterUnits="userSpaceOnUse" color-interpolation-filters="sRGB">
<feFlood flood-opacity="0" result="BackgroundImageFix"/>
<feBlend mode="normal" in="SourceGraphic" in2="BackgroundImageFix" result="shape"/>
<feColorMatrix in="SourceAlpha" type="matrix" values="0 0 0 0 0 0 0 0 0 0 0 0 0 0 0 0 0 0 127 0" result="hardAlpha"/>
<feOffset dx="1" dy="1"/>
<feGaussianBlur stdDeviation="0.5"/>
<feComposite in2="hardAlpha" operator="arithmetic" k2="-1" k3="1"/>
<feColorMatrix type="matrix" values="0 0 0 0 0.333333 0 0 0 0 0.443137 0 0 0 0 0.423529 0 0 0 1 0"/>
<feBlend mode="normal" in2="shape" result="effect1_innerShadow"/>
</filter>
<filter id="filter16_i" x="171.964" y="131.699" width="3.52573" height="3.52573" filterUnits="userSpaceOnUse" color-interpolation-filters="sRGB">
<feFlood flood-opacity="0" result="BackgroundImageFix"/>
<feBlend mode="normal" in="SourceGraphic" in2="BackgroundImageFix" result="shape"/>
<feColorMatrix in="SourceAlpha" type="matrix" values="0 0 0 0 0 0 0 0 0 0 0 0 0 0 0 0 0 0 127 0" result="hardAlpha"/>
<feOffset dx="1" dy="1"/>
<feGaussianBlur stdDeviation="0.5"/>
<feComposite in2="hardAlpha" operator="arithmetic" k2="-1" k3="1"/>
<feColorMatrix type="matrix" values="0 0 0 0 0.333333 0 0 0 0 0.443137 0 0 0 0 0.423529 0 0 0 1 0"/>
<feBlend mode="normal" in2="shape" result="effect1_innerShadow"/>
</filter>
<filter id="filter17_i" x="168.581" y="129.867" width="3.52572" height="3.52572" filterUnits="userSpaceOnUse" color-interpolation-filters="sRGB">
<feFlood flood-opacity="0" result="BackgroundImageFix"/>
<feBlend mode="normal" in="SourceGraphic" in2="BackgroundImageFix" result="shape"/>
<feColorMatrix in="SourceAlpha" type="matrix" values="0 0 0 0 0 0 0 0 0 0 0 0 0 0 0 0 0 0 127 0" result="hardAlpha"/>
<feOffset dx="1" dy="1"/>
<feGaussianBlur stdDeviation="0.5"/>
<feComposite in2="hardAlpha" operator="arithmetic" k2="-1" k3="1"/>
<feColorMatrix type="matrix" values="0 0 0 0 0.333333 0 0 0 0 0.443137 0 0 0 0 0.423529 0 0 0 1 0"/>
<feBlend mode="normal" in2="shape" result="effect1_innerShadow"/>
</filter>
<filter id="filter18_i" x="165.245" y="127.533" width="3.52573" height="3.52573" filterUnits="userSpaceOnUse" color-interpolation-filters="sRGB">
<feFlood flood-opacity="0" result="BackgroundImageFix"/>
<feBlend mode="normal" in="SourceGraphic" in2="BackgroundImageFix" result="shape"/>
<feColorMatrix in="SourceAlpha" type="matrix" values="0 0 0 0 0 0 0 0 0 0 0 0 0 0 0 0 0 0 127 0" result="hardAlpha"/>
<feOffset dx="1" dy="1"/>
<feGaussianBlur stdDeviation="0.5"/>
<feComposite in2="hardAlpha" operator="arithmetic" k2="-1" k3="1"/>
<feColorMatrix type="matrix" values="0 0 0 0 0.333333 0 0 0 0 0.443137 0 0 0 0 0.423529 0 0 0 1 0"/>
<feBlend mode="normal" in2="shape" result="effect1_innerShadow"/>
</filter>
<filter id="filter19_i" x="161.909" y="125.199" width="3.52573" height="3.52571" filterUnits="userSpaceOnUse" color-interpolation-filters="sRGB">
<feFlood flood-opacity="0" result="BackgroundImageFix"/>
<feBlend mode="normal" in="SourceGraphic" in2="BackgroundImageFix" result="shape"/>
<feColorMatrix in="SourceAlpha" type="matrix" values="0 0 0 0 0 0 0 0 0 0 0 0 0 0 0 0 0 0 127 0" result="hardAlpha"/>
<feOffset dx="1" dy="1"/>
<feGaussianBlur stdDeviation="0.5"/>
<feComposite in2="hardAlpha" operator="arithmetic" k2="-1" k3="1"/>
<feColorMatrix type="matrix" values="0 0 0 0 0.333333 0 0 0 0 0.443137 0 0 0 0 0.423529 0 0 0 1 0"/>
<feBlend mode="normal" in2="shape" result="effect1_innerShadow"/>
</filter>
<filter id="filter20_i" x="158.572" y="122.865" width="3.52573" height="3.52573" filterUnits="userSpaceOnUse" color-interpolation-filters="sRGB">
<feFlood flood-opacity="0" result="BackgroundImageFix"/>
<feBlend mode="normal" in="SourceGraphic" in2="BackgroundImageFix" result="shape"/>
<feColorMatrix in="SourceAlpha" type="matrix" values="0 0 0 0 0 0 0 0 0 0 0 0 0 0 0 0 0 0 127 0" result="hardAlpha"/>
<feOffset dx="1" dy="1"/>
<feGaussianBlur stdDeviation="0.5"/>
<feComposite in2="hardAlpha" operator="arithmetic" k2="-1" k3="1"/>
<feColorMatrix type="matrix" values="0 0 0 0 0.333333 0 0 0 0 0.443137 0 0 0 0 0.423529 0 0 0 1 0"/>
<feBlend mode="normal" in2="shape" result="effect1_innerShadow"/>
</filter>
<filter id="filter21_i" x="155.236" y="120.53" width="3.52572" height="3.52571" filterUnits="userSpaceOnUse" color-interpolation-filters="sRGB">
<feFlood flood-opacity="0" result="BackgroundImageFix"/>
<feBlend mode="normal" in="SourceGraphic" in2="BackgroundImageFix" result="shape"/>
<feColorMatrix in="SourceAlpha" type="matrix" values="0 0 0 0 0 0 0 0 0 0 0 0 0 0 0 0 0 0 127 0" result="hardAlpha"/>
<feOffset dx="1" dy="1"/>
<feGaussianBlur stdDeviation="0.5"/>
<feComposite in2="hardAlpha" operator="arithmetic" k2="-1" k3="1"/>
<feColorMatrix type="matrix" values="0 0 0 0 0.333333 0 0 0 0 0.443137 0 0 0 0 0.423529 0 0 0 1 0"/>
<feBlend mode="normal" in2="shape" result="effect1_innerShadow"/>
</filter>
<filter id="filter22_i" x="151.9" y="118.196" width="3.52571" height="3.52571" filterUnits="userSpaceOnUse" color-interpolation-filters="sRGB">
<feFlood flood-opacity="0" result="BackgroundImageFix"/>
<feBlend mode="normal" in="SourceGraphic" in2="BackgroundImageFix" result="shape"/>
<feColorMatrix in="SourceAlpha" type="matrix" values="0 0 0 0 0 0 0 0 0 0 0 0 0 0 0 0 0 0 127 0" result="hardAlpha"/>
<feOffset dx="1" dy="1"/>
<feGaussianBlur stdDeviation="0.5"/>
<feComposite in2="hardAlpha" operator="arithmetic" k2="-1" k3="1"/>
<feColorMatrix type="matrix" values="0 0 0 0 0.333333 0 0 0 0 0.443137 0 0 0 0 0.423529 0 0 0 1 0"/>
<feBlend mode="normal" in2="shape" result="effect1_innerShadow"/>
</filter>
<filter id="filter23_i" x="148.563" y="115.862" width="3.52571" height="3.52571" filterUnits="userSpaceOnUse" color-interpolation-filters="sRGB">
<feFlood flood-opacity="0" result="BackgroundImageFix"/>
<feBlend mode="normal" in="SourceGraphic" in2="BackgroundImageFix" result="shape"/>
<feColorMatrix in="SourceAlpha" type="matrix" values="0 0 0 0 0 0 0 0 0 0 0 0 0 0 0 0 0 0 127 0" result="hardAlpha"/>
<feOffset dx="1" dy="1"/>
<feGaussianBlur stdDeviation="0.5"/>
<feComposite in2="hardAlpha" operator="arithmetic" k2="-1" k3="1"/>
<feColorMatrix type="matrix" values="0 0 0 0 0.333333 0 0 0 0 0.443137 0 0 0 0 0.423529 0 0 0 1 0"/>
<feBlend mode="normal" in2="shape" result="effect1_innerShadow"/>
</filter>
<filter id="filter24_i" x="145.273" y="113.024" width="3.52572" height="3.52571" filterUnits="userSpaceOnUse" color-interpolation-filters="sRGB">
<feFlood flood-opacity="0" result="BackgroundImageFix"/>
<feBlend mode="normal" in="SourceGraphic" in2="BackgroundImageFix" result="shape"/>
<feColorMatrix in="SourceAlpha" type="matrix" values="0 0 0 0 0 0 0 0 0 0 0 0 0 0 0 0 0 0 127 0" result="hardAlpha"/>
<feOffset dx="1" dy="1"/>
<feGaussianBlur stdDeviation="0.5"/>
<feComposite in2="hardAlpha" operator="arithmetic" k2="-1" k3="1"/>
<feColorMatrix type="matrix" values="0 0 0 0 0.333333 0 0 0 0 0.443137 0 0 0 0 0.423529 0 0 0 1 0"/>
<feBlend mode="normal" in2="shape" result="effect1_innerShadow"/>
</filter>
<filter id="filter25_i" x="141.983" y="110.187" width="3.52572" height="3.52572" filterUnits="userSpaceOnUse" color-interpolation-filters="sRGB">
<feFlood flood-opacity="0" result="BackgroundImageFix"/>
<feBlend mode="normal" in="SourceGraphic" in2="BackgroundImageFix" result="shape"/>
<feColorMatrix in="SourceAlpha" type="matrix" values="0 0 0 0 0 0 0 0 0 0 0 0 0 0 0 0 0 0 127 0" result="hardAlpha"/>
<feOffset dx="1" dy="1"/>
<feGaussianBlur stdDeviation="0.5"/>
<feComposite in2="hardAlpha" operator="arithmetic" k2="-1" k3="1"/>
<feColorMatrix type="matrix" values="0 0 0 0 0.333333 0 0 0 0 0.443137 0 0 0 0 0.423529 0 0 0 1 0"/>
<feBlend mode="normal" in2="shape" result="effect1_innerShadow"/>
</filter>
<filter id="filter26_i" x="139.196" y="107.396" width="3.52572" height="3.52572" filterUnits="userSpaceOnUse" color-interpolation-filters="sRGB">
<feFlood flood-opacity="0" result="BackgroundImageFix"/>
<feBlend mode="normal" in="SourceGraphic" in2="BackgroundImageFix" result="shape"/>
<feColorMatrix in="SourceAlpha" type="matrix" values="0 0 0 0 0 0 0 0 0 0 0 0 0 0 0 0 0 0 127 0" result="hardAlpha"/>
<feOffset dx="1" dy="1"/>
<feGaussianBlur stdDeviation="0.5"/>
<feComposite in2="hardAlpha" operator="arithmetic" k2="-1" k3="1"/>
<feColorMatrix type="matrix" values="0 0 0 0 0.333333 0 0 0 0 0.443137 0 0 0 0 0.423529 0 0 0 1 0"/>
<feBlend mode="normal" in2="shape" result="effect1_innerShadow"/>
</filter>
<filter id="filter27_i" x="187.763" y="97.6447" width="3.52571" height="3.52573" filterUnits="userSpaceOnUse" color-interpolation-filters="sRGB">
<feFlood flood-opacity="0" result="BackgroundImageFix"/>
<feBlend mode="normal" in="SourceGraphic" in2="BackgroundImageFix" result="shape"/>
<feColorMatrix in="SourceAlpha" type="matrix" values="0 0 0 0 0 0 0 0 0 0 0 0 0 0 0 0 0 0 127 0" result="hardAlpha"/>
<feOffset dx="1" dy="1"/>
<feGaussianBlur stdDeviation="0.5"/>
<feComposite in2="hardAlpha" operator="arithmetic" k2="-1" k3="1"/>
<feColorMatrix type="matrix" values="0 0 0 0 0.333333 0 0 0 0 0.443137 0 0 0 0 0.423529 0 0 0 1 0"/>
<feBlend mode="normal" in2="shape" result="effect1_innerShadow"/>
</filter>
<filter id="filter28_i" x="184.38" y="95.8133" width="3.52571" height="3.52573" filterUnits="userSpaceOnUse" color-interpolation-filters="sRGB">
<feFlood flood-opacity="0" result="BackgroundImageFix"/>
<feBlend mode="normal" in="SourceGraphic" in2="BackgroundImageFix" result="shape"/>
<feColorMatrix in="SourceAlpha" type="matrix" values="0 0 0 0 0 0 0 0 0 0 0 0 0 0 0 0 0 0 127 0" result="hardAlpha"/>
<feOffset dx="1" dy="1"/>
<feGaussianBlur stdDeviation="0.5"/>
<feComposite in2="hardAlpha" operator="arithmetic" k2="-1" k3="1"/>
<feColorMatrix type="matrix" values="0 0 0 0 0.333333 0 0 0 0 0.443137 0 0 0 0 0.423529 0 0 0 1 0"/>
<feBlend mode="normal" in2="shape" result="effect1_innerShadow"/>
</filter>
<filter id="filter29_i" x="180.495" y="93.9359" width="3.52573" height="3.52572" filterUnits="userSpaceOnUse" color-interpolation-filters="sRGB">
<feFlood flood-opacity="0" result="BackgroundImageFix"/>
<feBlend mode="normal" in="SourceGraphic" in2="BackgroundImageFix" result="shape"/>
<feColorMatrix in="SourceAlpha" type="matrix" values="0 0 0 0 0 0 0 0 0 0 0 0 0 0 0 0 0 0 127 0" result="hardAlpha"/>
<feOffset dx="1" dy="1"/>
<feGaussianBlur stdDeviation="0.5"/>
<feComposite in2="hardAlpha" operator="arithmetic" k2="-1" k3="1"/>
<feColorMatrix type="matrix" values="0 0 0 0 0.333333 0 0 0 0 0.443137 0 0 0 0 0.423529 0 0 0 1 0"/>
<feBlend mode="normal" in2="shape" result="effect1_innerShadow"/>
</filter>
<filter id="filter30_i" x="177.112" y="92.1045" width="3.52571" height="3.52573" filterUnits="userSpaceOnUse" color-interpolation-filters="sRGB">
<feFlood flood-opacity="0" result="BackgroundImageFix"/>
<feBlend mode="normal" in="SourceGraphic" in2="BackgroundImageFix" result="shape"/>
<feColorMatrix in="SourceAlpha" type="matrix" values="0 0 0 0 0 0 0 0 0 0 0 0 0 0 0 0 0 0 127 0" result="hardAlpha"/>
<feOffset dx="1" dy="1"/>
<feGaussianBlur stdDeviation="0.5"/>
<feComposite in2="hardAlpha" operator="arithmetic" k2="-1" k3="1"/>
<feColorMatrix type="matrix" values="0 0 0 0 0.333333 0 0 0 0 0.443137 0 0 0 0 0.423529 0 0 0 1 0"/>
<feBlend mode="normal" in2="shape" result="effect1_innerShadow"/>
</filter>
<filter id="filter31_i" x="173.273" y="89.7241" width="3.52571" height="3.52571" filterUnits="userSpaceOnUse" color-interpolation-filters="sRGB">
<feFlood flood-opacity="0" result="BackgroundImageFix"/>
<feBlend mode="normal" in="SourceGraphic" in2="BackgroundImageFix" result="shape"/>
<feColorMatrix in="SourceAlpha" type="matrix" values="0 0 0 0 0 0 0 0 0 0 0 0 0 0 0 0 0 0 127 0" result="hardAlpha"/>
<feOffset dx="1" dy="1"/>
<feGaussianBlur stdDeviation="0.5"/>
<feComposite in2="hardAlpha" operator="arithmetic" k2="-1" k3="1"/>
<feColorMatrix type="matrix" values="0 0 0 0 0.333333 0 0 0 0 0.443137 0 0 0 0 0.423529 0 0 0 1 0"/>
<feBlend mode="normal" in2="shape" result="effect1_innerShadow"/>
</filter>
<filter id="filter32_i" x="170.486" y="86.9329" width="3.52573" height="3.52572" filterUnits="userSpaceOnUse" color-interpolation-filters="sRGB">
<feFlood flood-opacity="0" result="BackgroundImageFix"/>
<feBlend mode="normal" in="SourceGraphic" in2="BackgroundImageFix" result="shape"/>
<feColorMatrix in="SourceAlpha" type="matrix" values="0 0 0 0 0 0 0 0 0 0 0 0 0 0 0 0 0 0 127 0" result="hardAlpha"/>
<feOffset dx="1" dy="1"/>
<feGaussianBlur stdDeviation="0.5"/>
<feComposite in2="hardAlpha" operator="arithmetic" k2="-1" k3="1"/>
<feColorMatrix type="matrix" values="0 0 0 0 0.333333 0 0 0 0 0.443137 0 0 0 0 0.423529 0 0 0 1 0"/>
<feBlend mode="normal" in2="shape" result="effect1_innerShadow"/>
</filter>
<filter id="filter33_i" x="167.196" y="84.0956" width="3.52573" height="3.52572" filterUnits="userSpaceOnUse" color-interpolation-filters="sRGB">
<feFlood flood-opacity="0" result="BackgroundImageFix"/>
<feBlend mode="normal" in="SourceGraphic" in2="BackgroundImageFix" result="shape"/>
<feColorMatrix in="SourceAlpha" type="matrix" values="0 0 0 0 0 0 0 0 0 0 0 0 0 0 0 0 0 0 127 0" result="hardAlpha"/>
<feOffset dx="1" dy="1"/>
<feGaussianBlur stdDeviation="0.5"/>
<feComposite in2="hardAlpha" operator="arithmetic" k2="-1" k3="1"/>
<feColorMatrix type="matrix" values="0 0 0 0 0.333333 0 0 0 0 0.443137 0 0 0 0 0.423529 0 0 0 1 0"/>
<feBlend mode="normal" in2="shape" result="effect1_innerShadow"/>
</filter>
</defs>
</svg>
